PathFileType  4	(X/Y/Z) C:\Users\antoi\Documents\MyRepositories\mobilecap\ResultsAnalysis
DataRate	CameraRate	NumFrames	NumMarkers	Units	OrigDataRate	OrigDataStartFrame	OrigNumFrames
100.0	100.0	5	51	mm	100.0	35	278
Frame#	Time	r_knee			r_shank_antsup			r_ankle			r_calc			r_5meta			r_toe			L_knee			L_shank_antsup			L_ankle			L_calc			L_5meta			L_toe			r_sh2			r_sh3			r_sh4			L_sh2			L_sh3			r_thigh1			r_thigh2			r_thigh3			r_thigh4			r_thigh5			L_thigh1			L_thigh2			L_thigh3			L_thigh4			r.ASIS			r.PSIS			L.ASIS			L.PSIS			C7			R_Shoulder			L_Shoulder			R_Sternum			L_Sternum			R_humerus			R_elbow_med			R_elbow_lat			R_forearm			R_wrist_radius			R_wrist_ulna			L_humerus			L_elbow_med			L_elbow_lat			L_forearm			L_wrist_radius			L_wrist_ulna			R_HJC			L_HJC			R_HJC_reg			L_HJC_reg			
		X1	Y1	Z1	X2	Y2	Z2	X3	Y3	Z3	X4	Y4	Z4	X5	Y5	Z5	X6	Y6	Z6	X7	Y7	Z7	X8	Y8	Z8	X9	Y9	Z9	X10	Y10	Z10	X11	Y11	Z11	X12	Y12	Z12	X13	Y13	Z13	X14	Y14	Z14	X15	Y15	Z15	X16	Y16	Z16	X17	Y17	Z17	X18	Y18	Z18	X19	Y19	Z19	X20	Y20	Z20	X21	Y21	Z21	X22	Y22	Z22	X23	Y23	Z23	X24	Y24	Z24	X25	Y25	Z25	X26	Y26	Z26	X27	Y27	Z27	X28	Y28	Z28	X29	Y29	Z29	X30	Y30	Z30	X31	Y31	Z31	X32	Y32	Z32	X33	Y33	Z33	X34	Y34	Z34	X35	Y35	Z35	X36	Y36	Z36	X37	Y37	Z37	X38	Y38	Z38	X39	Y39	Z39	X40	Y40	Z40	X41	Y41	Z41	X42	Y42	Z42	X43	Y43	Z43	X44	Y44	Z44	X45	Y45	Z45	X46	Y46	Z46	X47	Y47	Z47	X48	Y48	Z48	X49	Y49	Z49	X50	Y50	Z50	X51	Y51	Z51	

35	0.34000000	-1168.55541	771.95350	-419.13867	-1144.69524	653.63481	-436.11808	-1256.66980	397.11822	-452.43374	-1307.62969	358.33420	-500.14450	-1144.83957	348.19896	-420.00544	-1109.76577	367.16462	-463.65912	-1154.37560	773.55107	-734.39262	-1126.46371	663.32189	-694.04667	-1257.53286	396.42417	-720.18194	-1305.07055	361.18616	-683.45517	-1138.42441	346.52975	-740.32050	-1101.82959	365.83655	-685.23752	-1173.62639	545.98037	-448.25219	-1199.90596	661.92790	-384.33362	-1243.63334	561.10391	-405.08142	-1172.49059	696.83848	-761.76426	-1206.49026	580.44779	-775.94993	-1125.18018	1079.88633	-417.49564	-1105.84223	973.04031	-416.18541	-1145.94994	939.42453	-374.87529	-1226.40243	1058.87828	-373.92202	-1201.74928	946.37798	-372.10136	-1139.61723	1070.37346	-750.91193	-1100.27126	935.20814	-745.47396	-1245.61414	1045.43810	-775.17788	-1207.72176	909.03217	-763.98346	-1107.87023	1214.03405	-457.14179	-1274.13524	1306.99296	-521.30555	-1110.13415	1211.34258	-700.05506	-1277.17678	1308.90980	-636.68977	-1137.27173	1740.46986	-576.77207	-1089.92617	1699.58916	-425.21548	-1084.95115	1707.07370	-732.18404	-1033.59169	1661.34962	-557.19597	-1031.04412	1658.87554	-598.78506	-1112.69714	1579.01553	-351.15729	-1268.15650	1435.29584	-384.91004	-1233.44275	1431.16069	-316.52976	-1244.47699	1304.57128	-292.14584	-1273.53836	1205.05563	-282.81149	-1299.32518	1219.68111	-257.75193	-1119.83366	1564.55089	-806.04266	-1264.81297	1424.74165	-757.67385	-1243.05175	1431.15378	-831.40687	-1243.83156	1334.58758	-864.00125	-1281.82604	1206.91899	-872.71899	-1304.33279	1220.66490	-892.95468	-1215.55009	1171.11889	-479.77477	-1214.74638	1165.48223	-669.06687	-1196.38537	1165.35572	-489.56900	-1200.61485	1168.01792	-649.82972	
36	0.35000000	-1166.26800	771.30520	-419.04637	-1142.76625	652.84355	-436.24946	-1256.55033	397.08934	-452.55469	-1307.61105	358.37470	-500.07276	-1144.84124	348.22179	-420.01969	-1109.75748	367.19125	-463.68450	-1152.92472	773.00471	-734.57019	-1125.08001	662.70359	-694.05707	-1257.39088	396.55200	-720.18954	-1305.08086	361.21442	-683.41433	-1138.42547	346.54401	-740.31442	-1101.81743	365.85088	-685.23884	-1172.59098	545.44397	-448.33404	-1197.90544	661.46957	-384.41344	-1242.33502	560.87647	-405.00362	-1171.19461	696.48521	-761.65674	-1205.65247	580.06265	-775.68750	-1125.49355	1079.53191	-416.70830	-1105.37937	972.90908	-415.38520	-1145.28857	938.78570	-374.48567	-1226.68765	1057.52843	-373.50661	-1201.10686	945.20904	-371.91969	-1140.44743	1069.92027	-750.63358	-1099.91419	935.05755	-745.52401	-1246.15409	1044.60724	-775.49020	-1207.20029	908.24844	-763.72908	-1108.28480	1212.43127	-457.07861	-1274.79010	1306.66352	-520.23279	-1110.84290	1209.05777	-698.91102	-1277.24174	1308.37728	-636.17965	-1132.22398	1738.69583	-576.39244	-1084.91858	1697.47740	-425.01082	-1079.77492	1704.81571	-731.88824	-1029.27755	1658.50908	-556.64951	-1026.70826	1655.73492	-598.26093	-1110.31273	1577.71536	-350.55336	-1268.75042	1437.38690	-384.50732	-1234.53186	1432.74789	-316.02681	-1248.95617	1306.56544	-290.93575	-1280.79661	1208.00397	-281.04790	-1306.35226	1223.37556	-256.61723	-1117.76737	1563.24536	-805.84520	-1266.08953	1427.00492	-757.28824	-1244.37205	1433.12654	-831.26148	-1248.04899	1336.82300	-864.20601	-1289.65648	1210.42799	-873.28176	-1311.76609	1224.63121	-893.35763	-1216.56537	1170.31775	-478.86168	-1215.99512	1164.26855	-668.14181	-1197.60906	1164.37175	-489.67345	-1200.98548	1166.73135	-649.25305	
37	0.36000000	-1163.96389	770.67079	-418.84650	-1140.87831	651.96524	-436.47013	-1256.42654	396.91278	-452.79638	-1307.58977	358.41613	-499.99736	-1144.83503	348.25102	-420.03589	-1109.73051	367.24706	-463.74057	-1151.45073	772.56500	-734.93217	-1123.66574	661.99217	-694.09572	-1257.25385	396.63910	-720.14315	-1305.09356	361.26213	-683.37586	-1138.42461	346.56626	-740.31087	-1101.80485	365.86495	-685.21884	-1171.46737	544.67568	-448.36704	-1195.90478	660.96966	-384.43683	-1241.27169	560.99395	-404.89578	-1169.91348	696.05094	-761.62224	-1204.87580	579.58718	-775.47651	-1125.77849	1079.09642	-416.14704	-1104.83409	972.70940	-414.68809	-1144.59404	938.22372	-374.10384	-1226.93221	1056.30967	-373.04622	-1200.34023	944.01272	-371.80968	-1141.31835	1069.45325	-750.41106	-1099.56182	934.86074	-745.68109	-1246.93200	1043.64992	-775.49993	-1206.64537	907.27657	-763.26768	-1108.78073	1210.81815	-456.98825	-1275.01720	1306.25071	-519.73963	-1111.58532	1206.98564	-698.07890	-1277.33618	1307.89876	-635.48889	-1127.06199	1736.75829	-576.21384	-1079.82638	1695.14519	-424.80327	-1074.54479	1702.29072	-731.61101	-1024.85009	1655.49960	-556.26924	-1022.23477	1652.65792	-597.97214	-1107.82729	1576.31032	-349.99896	-1269.22060	1439.52293	-384.10905	-1235.50618	1434.32232	-315.60156	-1253.39521	1308.64881	-289.96155	-1287.88863	1210.98549	-279.43679	-1312.77682	1227.54361	-254.83622	-1115.61515	1561.81419	-805.58752	-1267.18666	1429.27109	-756.72919	-1245.54221	1435.03605	-830.94104	-1252.07304	1339.29310	-864.61501	-1297.28114	1213.72742	-873.37183	-1318.96017	1228.74985	-893.47088	-1217.51317	1169.50288	-478.17591	-1217.18769	1163.16564	-667.44759	-1198.56506	1163.36635	-489.50853	-1201.75204	1165.63189	-648.61105	
38	0.37000000	-1161.65746	769.97662	-418.66801	-1138.98521	651.08913	-436.65664	-1256.35249	396.82526	-452.95157	-1307.58914	358.44670	-499.95600	-1144.85160	348.29124	-420.06138	-1109.71546	367.30684	-463.77663	-1149.94721	772.20853	-735.16819	-1122.24865	661.27092	-694.18616	-1257.16077	396.72581	-720.10798	-1305.10309	361.32411	-683.36324	-1138.42743	346.59027	-740.31155	-1101.79455	365.87691	-685.19948	-1170.30998	544.04811	-448.50794	-1193.89053	660.47135	-384.30959	-1240.34932	561.49728	-404.83979	-1168.60844	695.54158	-761.60753	-1204.15889	579.28712	-775.45033	-1126.17536	1078.53515	-415.56840	-1104.34709	972.41959	-414.11856	-1143.87110	937.56258	-373.71300	-1227.13108	1055.02083	-372.73734	-1199.58406	942.83546	-371.62292	-1142.20018	1068.89525	-750.34388	-1099.24151	934.72735	-745.86291	-1247.62289	1042.26702	-774.88449	-1206.19848	906.23587	-762.64261	-1109.25220	1209.11540	-456.73426	-1274.84656	1305.56048	-519.36563	-1112.46532	1205.24505	-697.77856	-1277.51183	1307.29451	-634.98201	-1121.72530	1734.64676	-576.09055	-1074.66461	1692.65189	-424.60698	-1069.26235	1699.66631	-731.31714	-1020.35703	1652.29493	-556.12629	-1017.69523	1649.53699	-597.86369	-1105.21443	1574.76696	-349.43303	-1269.60967	1441.65654	-383.81137	-1236.33040	1435.85352	-315.16953	-1257.67777	1310.84722	-289.12413	-1294.82204	1214.21083	-278.00600	-1318.89115	1231.87264	-252.95416	-1113.44292	1560.33704	-805.54431	-1268.13276	1431.50008	-756.13158	-1246.59006	1436.92695	-830.31870	-1255.92025	1341.51291	-864.61023	-1304.64045	1216.93579	-873.25021	-1326.03099	1232.95472	-893.50323	-1218.27788	1168.50669	-477.75486	-1218.29057	1162.11696	-667.02505	-1199.25187	1162.17836	-488.99843	-1202.91873	1164.56457	-648.06184	
39	0.38000000	-1159.34595	769.22219	-418.57304	-1137.04664	650.20437	-436.74007	-1256.39534	397.15234	-452.65037	-1307.61278	358.45836	-499.94152	-1144.88621	348.34222	-420.09354	-1109.72782	367.36495	-463.77283	-1148.44013	771.95235	-735.12226	-1120.89175	660.66616	-694.41010	-1257.11216	396.80710	-720.08611	-1305.11008	361.37902	-683.37213	-1138.43250	346.60591	-740.31715	-1101.79412	365.89015	-685.19726	-1169.22268	543.58097	-448.64004	-1191.83839	660.01972	-384.15457	-1239.22857	561.87928	-404.75008	-1167.39501	695.08945	-761.60620	-1203.46502	579.18884	-775.42025	-1126.68248	1077.93506	-414.86197	-1103.89576	972.00517	-413.65830	-1143.17126	936.72070	-373.37077	-1227.41017	1053.51703	-372.56875	-1198.87659	941.55163	-371.37557	-1143.07211	1068.27758	-750.46809	-1098.98850	934.68283	-746.01238	-1248.26144	1040.66844	-773.92541	-1205.80718	905.26021	-762.30323	-1109.65979	1207.29901	-456.37752	-1274.80562	1304.62169	-518.48610	-1113.51140	1203.95186	-697.89243	-1277.68754	1306.51258	-634.76717	-1116.31008	1732.39851	-575.76583	-1069.38595	1690.00412	-424.39857	-1063.98031	1697.00152	-730.97701	-1015.86547	1648.87625	-555.99268	-1013.18500	1646.10381	-597.62101	-1102.47936	1573.02730	-348.88811	-1269.78730	1443.76290	-383.67720	-1236.97818	1437.30132	-314.79093	-1261.75432	1313.14129	-288.29569	-1301.67009	1217.68151	-276.92331	-1325.24490	1236.06521	-251.88223	-1111.30771	1558.77820	-805.58744	-1268.85417	1433.67697	-755.48630	-1247.47324	1438.82279	-829.59619	-1259.51918	1343.59725	-864.27110	-1311.76218	1220.58857	-873.39566	-1333.05728	1237.16543	-893.60478	-1218.90264	1167.24748	-477.52382	-1219.32910	1161.18662	-666.80322	-1200.07277	1160.82400	-488.61331	-1204.02504	1163.41668	-647.97794	
